# xmcd
#
# Track frame offsets: 
#        150
#        13664
#        28175
#        42968
#        62434
#        77786
#        95438
#        111969
#        128367
#        143683
#        161002
#        176653
#        190289
#        209258
#        230217
#        251131
#        267102
#        280344
#
# Disc length: 3990 seconds
#
# Revision: 0
# Processed by: cddbd v1.5.2PL0 Copyright (c) Steve Scherf et al.
# Submitted via: ExactAudioCopy v0.99pb5
#
DISCID=fe0f9412
DTITLE=Katie Melua - The Katie Melua Collection CD1
DYEAR=2009
DGENRE=Blues
TTITLE0=Two Bare Feet
TTITLE1=Toy Collection
TTITLE2=Nine Million Bicycles
TTITLE3=What A Wonderful World
TTITLE4=Piece By Piece
TTITLE5=Spider´s Web
TTITLE6=Thank You, Stars
TTITLE7=I Cried For You
TTITLE8=When You Taught Me How To Dance
TTITLE9=Somewhere In The Same Hotel
TTITLE10=Shy Boy
TTITLE11=Halfway Up The Hindu Kush
TTITLE12=Blues In The Night
TTITLE13=Blue Shoes
TTITLE14=On The Road Again
TTITLE15=Just Like Heaven
TTITLE16=I Do Believe In Love
TTITLE17=The Closest Thing To Crazy
EXTD=
EXTT0=
EXTT1=
EXTT2=
EXTT3=
EXTT4=
EXTT5=
EXTT6=
EXTT7=
EXTT8=
EXTT9=
EXTT10=
EXTT11=
EXTT12=
EXTT13=
EXTT14=
EXTT15=
EXTT16=
EXTT17=
PLAYORDER=
